#!OML:ASF H:\Dans Jumps\Project 1\Capture day 1\Session 1\subject.ASF
:FULLY-SPECIFIED
:DEGREES
112
root 0.128754 17.5867 -13.6722 7.49264 0.751879 -1.35615
lowerback -2.49045 -0.75135 0.227269
upperback 2.54265 -1.0793 1.80354
thorax 4.04669 -0.55901 1.66781
lowerneck -13.3548 0.613716 -1.93144
upperneck 32.3499 1.12426 0.905723
head 13.0109 0.375511 0.856335
rclavicle 7.10655e-015 -7.55382e-015
rhumerus -24.2185 -25.2583 -75.6298
rradius 26.4923
rwrist 31.6927
rhand -18.1854 -26.2609
rfingers 7.12502
rthumb 8.09145 -56.086
lclavicle 7.10655e-015 -7.55382e-015
lhumerus -19.9452 3.76411 85.9188
lradius 20.5215
lwrist 1.01115
lhand -24.198 -2.62879
lfingers 7.12502
lthumb 2.28617 27.3387
rfemur -13.3462 -3.92826 20.947
rtibia 20.9355
rfoot -13.951 -3.19145
rtoes 11.4686
lfemur -13.0576 7.21275 -19.2492
ltibia 18.6803
lfoot -10.9565 5.57122
ltoes -0.417865
113
root 0.128484 17.5868 -13.6741 7.48912 0.777715 -1.35779
lowerback -2.47463 -0.753245 0.225951
upperback 2.53433 -1.08149 1.8058
thorax 4.02921 -0.560106 1.67097
lowerneck -13.3592 0.613794 -1.91692
upperneck 32.3372 1.12449 0.893886
head 13.0067 0.376009 0.84915
rclavicle 6.5102e-015 -6.36111e-015
rhumerus -24.2287 -25.2526 -75.6238
rradius 26.464
rwrist 31.7202
rhand -18.1886 -26.233
rfingers 7.12502
rthumb 8.0883 -56.0582
lclavicle 6.5102e-015 -6.36111e-015
lhumerus -19.9498 3.75912 85.93
lradius 20.5383
lwrist 1.02519
lhand -24.1858 -2.62541
lfingers 7.12502
lthumb 2.29787 27.342
rfemur -13.3457 -3.95107 20.9515
rtibia 20.9319
rfoot -13.9431 -3.1918
rtoes 11.4737
lfemur -13.0677 7.20118 -19.2457
ltibia 18.6865
lfoot -10.9564 5.55503
ltoes -0.394977
114
root 0.128157 17.587 -13.6762 7.48581 0.803787 -1.36165
lowerback -2.45571 -0.7548 0.226694
upperback 2.52723 -1.0833 1.80825
thorax 4.01121 -0.56096 1.67323
lowerneck -13.3664 0.614801 -1.9028
upperneck 32.3241 1.1256 0.884047
head 13.0029 0.377108 0.842958
rclavicle 1.1778e-014 -1.82882e-014
rhumerus -24.2346 -25.2556 -75.6179
rradius 26.4308
rwrist 31.7527
rhand -18.1939 -26.1963
rfingers 7.12502
rthumb 8.08317 -56.0217
lclavicle 1.1778e-014 -1.82882e-014
lhumerus -19.9518 3.74598 85.9431
lradius 20.5579
lwrist 1.04647
lhand -24.1777 -2.62393
lfingers 7.12502
lthumb 2.30569 27.3434
rfemur -13.3469 -3.97033 20.9591
rtibia 20.9289
rfoot -13.9341 -3.19715
rtoes 11.4709
lfemur -13.079 7.19124 -19.2391
ltibia 18.6926
lfoot -10.9562 5.53586
ltoes -0.367822
115
root 0.127893 17.5872 -13.6785 7.48346 0.828193 -1.36458
lowerback -2.43862 -0.755288 0.228039
upperback 2.52283 -1.08373 1.80928
thorax 3.99696 -0.561105 1.67372
lowerneck -13.3711 0.614745 -1.89236
upperneck 32.306 1.12465 0.878555
head 12.9964 0.377479 0.838729
rclavicle 1.19271e-015 -1.11319e-014
rhumerus -24.2373 -25.2497 -75.6177
rradius 26.401
rwrist 31.778
rhand -18.2006 -26.1649
rfingers 7.12502
rthumb 8.0767 -55.9906
lclavicle 1.19271e-015 -1.11319e-014
lhumerus -19.9467 3.7279 85.957
lradius 20.5761
lwrist 1.07048
lhand -24.1748 -2.6279
lfingers 7.12502
lthumb 2.30851 27.3394
rfemur -13.35 -3.9889 20.9656
rtibia 20.9274
rfoot -13.925 -3.20344
rtoes 11.4565
lfemur -13.0911 7.18435 -19.2342
ltibia 18.6986
lfoot -10.957 5.51529
ltoes -0.337011
116
root 0.127649 17.5874 -13.681 7.48177 0.8528 -1.36696
lowerback -2.41965 -0.756006 0.228769
upperback 2.52067 -1.08444 1.81007
thorax 3.98399 -0.561417 1.67432
lowerneck -13.374 0.613732 -1.88692
upperneck 32.282 1.12238 0.876789
head 12.987 0.377204 0.836551
rclavicle 2.78299e-015 8.74653e-015
rhumerus -24.2313 -25.2378 -75.6231
rradius 26.3657
rwrist 31.806
rhand -18.219 -26.1411
rfingers 7.12502
rthumb 8.05895 -55.9674
lclavicle 2.78299e-015 8.74653e-015
lhumerus -19.9357 3.71423 85.9705
lradius 20.592
lwrist 1.08986
lhand -24.178 -2.64913
lfingers 7.12502
lthumb 2.30544 27.3182
rfemur -13.3563 -4.00593 20.9716
rtibia 20.9288
rfoot -13.916 -3.21054
rtoes 11.4452
lfemur -13.1052 7.17928 -19.2301
ltibia 18.7047
lfoot -10.9588 5.49249
ltoes -0.305619
117
root 0.127497 17.5876 -13.6838 7.4814 0.876787 -1.36968
lowerback -2.40104 -0.756531 0.230568
upperback 2.52188 -1.085 1.81048
thorax 3.97469 -0.561633 1.67391
lowerneck -13.3809 0.612422 -1.88284
upperneck 32.2551 1.11952 0.876855
head 12.9771 0.376763 0.835235
rclavicle 2.28602e-015 9.93923e-015
rhumerus -24.2144 -25.2247 -75.6345
rradius 26.3263
rwrist 31.8431
rhand -18.2393 -26.1334
rfingers 7.12502
rthumb 8.03938 -55.9605
lclavicle 2.28602e-015 9.93923e-015
lhumerus -19.9166 3.70142 85.984
lradius 20.6063
lwrist 1.11038
lhand -24.1837 -2.66264
lfingers 7.12502
lthumb 2.29995 27.3047
rfemur -13.3671 -4.02253 20.9777
rtibia 20.934
rfoot -13.9066 -3.21573
rtoes 11.4393
lfemur -13.1215 7.17496 -19.2265
ltibia 18.7108
lfoot -10.9607 5.4699
ltoes -0.280016
118
root 0.127517 17.5878 -13.6869 7.48136 0.898959 -1.37044
lowerback -2.38073 -0.757344 0.23092
upperback 2.52472 -1.08588 1.81073
thorax 3.96614 -0.562058 1.67416
lowerneck -13.3856 0.610463 -1.88168
upperneck 32.2238 1.11635 0.877165
head 12.965 0.375898 0.834418
rclavicle -1.04859e-014 -3.57812e-015
rhumerus -24.1897 -25.2073 -75.6486
rradius 26.2835
rwrist 31.8831
rhand -18.2571 -26.1269
rfingers 7.12502
rthumb 8.02225 -55.9547
lclavicle -1.04859e-014 -3.57812e-015
lhumerus -19.8938 3.69618 85.9972
lradius 20.6206
lwrist 1.13056
lhand -24.1894 -2.68601
lfingers 7.12502
lthumb 2.29447 27.2814
rfemur -13.382 -4.03847 20.9808
rtibia 20.9433
rfoot -13.8968 -3.21802
rtoes 11.4374
lfemur -13.14 7.17301 -19.2263
ltibia 18.7185
lfoot -10.9621 5.44763
ltoes -0.26567
119
root 0.127668 17.5878 -13.6903 7.48005 0.920792 -1.37047
lowerback -2.35671 -0.759023 0.23036
upperback 2.5296 -1.08788 1.81143
thorax 3.95767 -0.563082 1.67534
lowerneck -13.3893 0.608865 -1.88203
upperneck 32.189 1.11455 0.876032
head 12.9512 0.375285 0.833462
rclavicle -1.49089e-015 -6.36111e-015
rhumerus -24.1576 -25.1865 -75.6648
rradius 26.2378
rwrist 31.9247
rhand -18.2751 -26.1125
rfingers 7.12502
rthumb 8.00485 -55.9409
lclavicle -1.49089e-015 -6.36111e-015
lhumerus -19.8687 3.69791 86.0095
lradius 20.6417
lwrist 1.17249
lhand -24.175 -2.67384
lfingers 7.12502
lthumb 2.30833 27.2934
rfemur -13.3987 -4.0531 20.9824
rtibia 20.9567
rfoot -13.8867 -3.22085
rtoes 11.4377
lfemur -13.16 7.17133 -19.2276
ltibia 18.7294
lfoot -10.9639 5.42612
ltoes -0.262282
120
root 0.127962 17.5877 -13.694 7.47813 0.9416 -1.37076
lowerback -2.32787 -0.761056 0.229902
upperback 2.53568 -1.09035 1.81308
thorax 3.94775 -0.564355 1.67749
lowerneck -13.3916 0.608145 -1.88674
upperneck 32.151 1.11436 0.877386
head 12.9356 0.375209 0.834426
rclavicle -5.01931e-015 -1.59028e-015
rhumerus -24.1212 -25.166 -75.6807
rradius 26.1921
rwrist 31.9679
rhand -18.2862 -26.0923
rfingers 7.12502
rthumb 7.99412 -55.9212
lclavicle -5.01931e-015 -1.59028e-015
lhumerus -19.8419 3.70574 86.022
lradius 20.6702
lwrist 1.23496
lhand -24.1409 -2.62886
lfingers 7.12502
lthumb 2.34128 27.338
rfemur -13.4183 -4.06454 20.9837
rtibia 20.9741
rfoot -13.8768 -3.22517
rtoes 11.4367
lfemur -13.1836 7.17304 -19.2295
ltibia 18.7454
lfoot -10.9664 5.40235
ltoes -0.263377
121
root 0.12845 17.5875 -13.6981 7.47586 0.96185 -1.37062
lowerback -2.29405 -0.76258 0.231122
upperback 2.54236 -1.09211 1.8137
thorax 3.93555 -0.565209 1.67773
lowerneck -13.3873 0.606797 -1.89243
upperneck 32.1071 1.11315 0.879332
head 12.9161 0.374703 0.835531
rclavicle -8.94531e-015 6.36111e-015
rhumerus -24.0851 -25.1404 -75.6977
rradius 26.1539
rwrist 31.9998
rhand -18.2836 -26.0646
rfingers 7.12502
rthumb 7.99661 -55.8933
lclavicle -8.94531e-015 6.36111e-015
lhumerus -19.8164 3.70972 86.0345
lradius 20.7021
lwrist 1.29817
lhand -24.1126 -2.59386
lfingers 7.12502
lthumb 2.36858 27.3727
rfemur -13.4405 -4.0742 20.9837
rtibia 20.995
rfoot -13.8681 -3.23199
rtoes 11.4326
lfemur -13.212 7.17307 -19.2327
ltibia 18.7688
lfoot -10.9699 5.38097
ltoes -0.263327
122
root 0.129109 17.5872 -13.7028 7.47397 0.981122 -1.37382
lowerback -2.25542 -0.763743 0.236853
upperback 2.55054 -1.09356 1.81501
thorax 3.9221 -0.565792 1.67622
lowerneck -13.3819 0.605685 -1.89921
upperneck 32.0593 1.11218 0.882361
head 12.8949 0.374346 0.837233
rclavicle -9.29318e-015 1.35174e-014
rhumerus -24.0487 -25.1039 -75.718
rradius 26.1283
rwrist 32.0129
rhand -18.2745 -26.0243
rfingers 7.12502
rthumb 8.00543 -55.8526
lclavicle -9.29318e-015 1.35174e-014
lhumerus -19.7908 3.7106 86.0474
lradius 20.7437
lwrist 1.37737
lhand -24.0755 -2.53984
lfingers 7.12502
lthumb 2.40442 27.4264
rfemur -13.467 -4.07974 20.9868
rtibia 21.0195
rfoot -13.8604 -3.24187
rtoes 11.4296
lfemur -13.2475 7.17252 -19.2332
ltibia 18.8013
lfoot -10.9738 5.36103
ltoes -0.260533
123
root 0.130001 17.5867 -13.7079 7.47336 0.999894 -1.37785
lowerback -2.21392 -0.764144 0.246625
upperback 2.56083 -1.09412 1.81543
thorax 3.90909 -0.565808 1.6716
lowerneck -13.3785 0.604464 -1.90494
upperneck 32.0097 1.11082 0.885316
head 12.8732 0.373956 0.83866
rclavicle -3.37934e-015 1.03368e-014
rhumerus -24.0127 -25.0558 -75.742
rradius 26.1158
rwrist 32.0133
rhand -18.2659 -25.9747
rfingers 7.12502
rthumb 8.01375 -55.8027
lclavicle -3.37934e-015 1.03368e-014
lhumerus -19.7643 3.70265 86.0613
lradius 20.7916
lwrist 1.46022
lhand -24.0439 -2.49809
lfingers 7.12502
lthumb 2.43498 27.4678
rfemur -13.4989 -4.08269 20.9898
rtibia 21.0491
rfoot -13.855 -3.25478
rtoes 11.4174
lfemur -13.2908 7.16883 -19.234
ltibia 18.8432
lfoot -10.9783 5.34509
ltoes -0.245897
124
root 0.13108 17.5861 -13.7137 7.47375 1.01903 -1.38147
lowerback -2.16631 -0.764611 0.258331
upperback 2.57229 -1.09474 1.81519
thorax 3.89378 -0.565793 1.66529
lowerneck -13.3725 0.602254 -1.91191
upperneck 31.956 1.10854 0.887481
head 12.8494 0.372944 0.839802
rclavicle 1.73937e-015 -5.56597e-015
rhumerus -23.9777 -24.9813 -75.7731
rradius 26.1205
rwrist 31.9862
rhand -18.2605 -25.931
rfingers 7.12502
rthumb 8.01896 -55.7589
lclavicle 1.73937e-015 -5.56597e-015
lhumerus -19.7372 3.68625 86.0763
lradius 20.8433
lwrist 1.54276
lhand -24.0234 -2.47121
lfingers 7.12502
lthumb 2.45476 27.4944
rfemur -13.537 -4.08377 20.9915
rtibia 21.0851
rfoot -13.852 -3.26859
rtoes 11.4105
lfemur -13.3427 7.16591 -19.2367
ltibia 18.8951
lfoot -10.9846 5.32939
ltoes -0.232083
